<?xml version="1.0" encoding="UTF-8"?><!DOCTYPE svg  PUBLIC '-//W3C//DTD SVG 1.1//EN'  'http://www.w3.org/Graphics/SVG/1.1/DTD/svg11.dtd'>
<svg version="1.1" viewBox="0 0 400 400" xmlns="http://www.w3.org/2000/svg"><path d="M0 0h400v400H0z"/><path d="m264.4 350c-55.86 25.06-121.4 16.93-169.4-21.1-47.99-38.13-70.71-99.85-58.9-160 11.75-60.2 56.12-109.2 115-126.4" stroke="#ffa500" stroke-width="1.97" style="paint-order:markers fill stroke"/><path d="m34 210 176-10" stroke="#ffa500" stroke-width="1px"/><g fill="none"><path d="m193 286.3c-45.78-12.65-74.16-57.65-65.2-104.3 8.892-46.59 52.04-79.06 99.2-74" stroke="#8b0000" stroke-width="2" style="paint-order:markers fill stroke"/><path d="m210 200-82.1 8.51" stroke="#8b0000" stroke-width="1px"/><path d="m210 200-152 86.5" stroke="#ff0" stroke-width="1px"/><path d="m151 42.5c82.86-24.22 170.3 19.94 200 101 29.62 80.75-8.18 171.2-86.6 206.5" stroke="#ff0" stroke-width="1.97" style="paint-order:markers fill stroke"/><path d="m227 108a91.1 91.1 0 0 1 75.4 58.3 91.1 91.1 0 0 1 -17.9 93.6 91.1 91.1 0 0 1 -91.6 26.4" stroke="red" stroke-width="2" style="paint-order:markers fill stroke"/><path d="m210 200 99-10.5" stroke="red" stroke-width="1px"/><path d="m210 200 151-9.51" stroke="#ff0" stroke-width="1px"/></g><radialGradient id="a" cx="99%" cy="47%" r="99%"><stop stop-color="#cfcfcf" offset="0"/><stop offset="1"/></radialGradient><ellipse cx="33.9" cy="210" rx="1" ry="1" fill="url(#a)"/><radialGradient id="b" cx="99%" cy="58%" r="99%"><stop stop-color="#cfcfcf" offset="0"/><stop offset="1"/></radialGradient><ellipse cx="36.1" cy="170" rx="3" ry="3" fill="url(#b)"/><radialGradient id="c" cx="100%" cy="45%" r="100%"><stop stop-color="#e69960" offset="0"/><stop offset="1"/></radialGradient><ellipse cx="128" cy="209" rx="1" ry="1" fill="url(#c)"/><radialGradient id="d" cx="94%" cy="26%" r="150%"><stop offset="0"/><stop stop-color="#e69960" offset="1"/></radialGradient><ellipse cx="297" cy="153" rx="17" ry="17" fill="url(#d)"/><radialGradient id="e" cx="100%" cy="45%" r="150%"><stop offset="0"/><stop stop-color="#e69960" offset="1"/></radialGradient><ellipse cx="309" cy="189" rx="1" ry="1" fill="url(#e)"/><radialGradient id="f" cx="99%" cy="47%" r="149%"><stop offset="0"/><stop stop-color="#cfcfcf" offset="1"/></radialGradient><ellipse cx="360" cy="191" rx="1" ry="1" fill="url(#f)"/><g font-family="Arial" font-size="12"><text x="284" y="208" stroke="red">June 2006</text><text x="309" y="189" stroke="red">Q</text><text x="105" y="199" stroke="#8b0000">June 2007</text><text x="129" y="219" stroke="#8b0000">q</text><text x="11" y="229" stroke="orange">Oct. 2006</text><text x="35" y="205" stroke="orange">Q</text><text x="338" y="182" stroke="#ff0">July 2004</text><text x="362" y="202" stroke="#ff0">q</text></g></svg>
